<?xml version="1.0" encoding="utf-8"?>
<!-- Generator: Adobe Illustrator 16.0.0, SVG Export Plug-In . SVG Version: 6.00 Build 0)  -->
<!DOCTYPE svg PUBLIC "-//W3C//DTD SVG 1.1//EN" "http://www.w3.org/Graphics/SVG/1.1/DTD/svg11.dtd">
<svg version="1.1" id="Layer_1" xmlns="http://www.w3.org/2000/svg" xmlns:xlink="http://www.w3.org/1999/xlink" x="0px" y="0px"
	 width="292px" height="292px" viewBox="0 0 292 292" enable-background="new 0 0 292 292" xml:space="preserve">
<g>
	<circle fill="#FFFFFF" cx="146" cy="146" r="144.914"/>
	<g>
		<path fill="#0052B4" d="M31.043,57.773C19.66,72.584,11.076,89.653,6.079,108.197h75.388L31.043,57.773z"/>
		<path fill="#0052B4" d="M285.922,108.197c-4.999-18.543-13.582-35.612-24.963-50.422l-50.424,50.422H285.922z"/>
		<path fill="#0052B4" d="M6.079,183.805c4.999,18.543,13.582,35.613,24.964,50.422l50.422-50.422H6.079L6.079,183.805z"/>
		<path fill="#0052B4" d="M234.227,31.043c-14.81-11.384-31.88-19.967-50.423-24.965v75.387L234.227,31.043z"/>
		<path fill="#0052B4" d="M57.773,260.957c14.811,11.383,31.88,19.966,50.423,24.965v-75.387L57.773,260.957z"/>
		<path fill="#0052B4" d="M108.196,6.079C89.653,11.077,72.583,19.66,57.773,31.043l50.422,50.422V6.079z"/>
		<path fill="#0052B4" d="M183.805,285.922c18.542-4.999,35.612-13.582,50.422-24.965l-50.422-50.422V285.922L183.805,285.922z"/>
		<path fill="#0052B4" d="M210.535,183.805l50.424,50.422c11.381-14.809,19.965-31.879,24.963-50.422H210.535z"/>
	</g>
	<g>
		<path fill="#D80027" d="M289.688,127.098H164.902h-0.001V2.313C158.714,1.507,152.406,1.086,146,1.086
			c-6.408,0-12.714,0.42-18.902,1.227v124.784v0.001H2.313C1.507,133.285,1.086,139.593,1.086,146c0,6.406,0.42,12.714,1.227,18.901
			h124.783h0.001v124.786c6.188,0.805,12.495,1.227,18.902,1.227c6.406,0,12.714-0.422,18.901-1.227V164.902v-0.001h124.786
			c0.805-6.188,1.227-12.495,1.227-18.901C290.914,139.593,290.492,133.285,289.688,127.098z"/>
		<path fill="#D80027" d="M183.805,183.805L183.805,183.805l64.664,64.665c2.974-2.975,5.812-6.081,8.518-9.304l-55.362-55.361
			H183.805L183.805,183.805L183.805,183.805z"/>
		<path fill="#D80027" d="M108.196,183.805L108.196,183.805L43.53,248.469c2.973,2.974,6.082,5.812,9.303,8.518l55.362-55.363
			V183.805z"/>
		<path fill="#D80027" d="M108.196,108.197L108.196,108.197L43.531,43.53c-2.974,2.973-5.811,6.081-8.519,9.303l55.364,55.363
			H108.196L108.196,108.197z"/>
		<path fill="#D80027" d="M183.805,108.197L183.805,108.197L248.47,43.53c-2.973-2.974-6.081-5.811-9.304-8.518l-55.361,55.363
			V108.197z"/>
	</g>
</g>
</svg>
