<?xml version="1.0" encoding="utf-8"?>
<!-- Generator: Adobe Illustrator 16.0.0, SVG Export Plug-In . SVG Version: 6.00 Build 0)  -->
<!DOCTYPE svg PUBLIC "-//W3C//DTD SVG 1.1//EN" "http://www.w3.org/Graphics/SVG/1.1/DTD/svg11.dtd">
<svg version="1.1" id="Layer_1" xmlns="http://www.w3.org/2000/svg" xmlns:xlink="http://www.w3.org/1999/xlink" x="0px" y="0px"
	 width="292px" height="292px" viewBox="0 0 292 292" enable-background="new 0 0 292 292" xml:space="preserve">
<g>
	<circle fill="#FFFFFF" cx="146" cy="146" r="145"/>
	<path fill="#0052B4" d="M281.98,95.565H127.087V57.739H51.435v37.826H10.019C4.19,111.273,1,128.264,1,146
		c0,17.736,3.19,34.727,9.02,50.436L146,209.043l135.98-12.607C287.809,180.727,291,163.736,291,146
		C291,128.263,287.811,111.273,281.98,95.565z"/>
	<path fill="#D80027" d="M146,291c62.346,0,115.494-39.35,135.98-94.564H10.019C30.506,251.65,83.655,291,146,291z"/>
	<path fill="#FFFFFF" d="M51.435,95.565v12.608c0,28.955,37.826,37.827,37.826,37.827s37.825-8.872,37.825-37.827V95.565
		l-12.607,12.609L89.261,89.261l-25.218,18.913L51.435,95.565z"/>
</g>
</svg>
